<svg xmlns="http://www.w3.org/2000/svg" width="1024" height="1024" viewBox="0 0 1024 1024">
  <rect width="1024" height="1024" fill="#0f172a"/>
  <g transform="translate(512,512) scale(30) translate(-12,-12)">
    <path d="M20 13c0 5-3.5 7.5-7.66 8.95a1 1 0 0 1-.67-.01C7.5 20.5 4 18 4 13V6a1 1 0 0 1 1-1c2 0 4.5-1.2 6.24-2.72a1.17 1.17 0 0 1 1.52 0C14.51 3.81 17 5 19 5a1 1 0 0 1 1 1z"
      fill="#1e293b" stroke="#f59e0b" stroke-width="1.4" stroke-linecap="round" stroke-linejoin="round"/>
  </g>
  <text x="512" y="600" font-family="DejaVu Sans, sans-serif" font-size="260" font-weight="bold" fill="#f59e0b" text-anchor="middle">43</text>
</svg>
